<svg width="48" height="48" viewBox="0 0 48 48" fill="none" xmlns="http://www.w3.org/2000/svg">
<rect width="48" height="48" fill="white"/>
<mask id="path-1-inside-1" fill="white">
<path d="M14.0681 27.0627C14.6204 27.0677 15.064 27.5194 15.059 28.0717L14.9437 40.7679C14.9239 42.9498 13.1391 44.7024 10.9573 44.6826C8.77543 44.6628 7.02276 42.878 7.04256 40.6962L7.15784 28C7.16285 27.4477 7.61462 27.0041 8.16688 27.0091L14.0681 27.0627Z"/>
</mask>
<path d="M14.0681 27.0627C14.6204 27.0677 15.064 27.5194 15.059 28.0717L14.9437 40.7679C14.9239 42.9498 13.1391 44.7024 10.9573 44.6826C8.77543 44.6628 7.02276 42.878 7.04256 40.6962L7.15784 28C7.16285 27.4477 7.61462 27.0041 8.16688 27.0091L14.0681 27.0627Z" stroke="#152C5B" stroke-width="6" mask="url(#path-1-inside-1)"/>
<mask id="path-2-inside-2" fill="white">
<path d="M41.0727 26.0627C41.625 26.0677 42.0686 26.5194 42.0636 27.0717L41.937 41.0117C41.9172 43.1936 40.1324 44.9463 37.9506 44.9264C35.7687 44.9066 34.0161 43.1218 34.0359 40.94L34.1624 27C34.1675 26.4477 34.6192 26.0041 35.1715 26.0091L41.0727 26.0627Z"/>
</mask>
<path d="M41.0727 26.0627C41.625 26.0677 42.0686 26.5194 42.0636 27.0717L41.937 41.0117C41.9172 43.1936 40.1324 44.9463 37.9506 44.9264C35.7687 44.9066 34.0161 43.1218 34.0359 40.94L34.1624 27C34.1675 26.4477 34.6192 26.0041 35.1715 26.0091L41.0727 26.0627Z" stroke="#152C5B" stroke-width="6" mask="url(#path-2-inside-2)"/>
<path d="M17 17L17 13" stroke="#152C5B" stroke-width="3" stroke-linecap="round"/>
<path d="M34 17L34 13" stroke="#152C5B" stroke-width="3" stroke-linecap="round"/>
<mask id="path-5-inside-3" fill="white">
<path d="M19.7273 4.06026C20.2796 4.06528 20.7232 4.51704 20.7182 5.0693L20.6717 10.1875C20.6526 12.2964 18.9274 13.9905 16.8185 13.9714C14.7096 13.9522 13.0155 12.2271 13.0347 10.1182L13.0811 4.99996C13.0862 4.4477 13.5379 4.00407 14.0902 4.00908L19.7273 4.06026Z"/>
</mask>
<path d="M19.7273 4.06026C20.2796 4.06528 20.7232 4.51704 20.7182 5.0693L20.6717 10.1875C20.6526 12.2964 18.9274 13.9905 16.8185 13.9714C14.7096 13.9522 13.0155 12.2271 13.0347 10.1182L13.0811 4.99996C13.0862 4.4477 13.5379 4.00407 14.0902 4.00908L19.7273 4.06026Z" stroke="#FF498B" stroke-width="6" mask="url(#path-5-inside-3)"/>
<mask id="path-6-inside-4" fill="white">
<path d="M36.7273 4.06026C37.2796 4.06528 37.7232 4.51704 37.7182 5.0693L37.6717 10.1875C37.6526 12.2964 35.9274 13.9905 33.8185 13.9714C31.7096 13.9522 30.0155 12.2271 30.0347 10.1182L30.0811 4.99996C30.0862 4.4477 30.5379 4.00407 31.0902 4.00908L36.7273 4.06026Z"/>
</mask>
<path d="M36.7273 4.06026C37.2796 4.06528 37.7232 4.51704 37.7182 5.0693L37.6717 10.1875C37.6526 12.2964 35.9274 13.9905 33.8185 13.9714C31.7096 13.9522 30.0155 12.2271 30.0347 10.1182L30.0811 4.99996C30.0862 4.4477 30.5379 4.00407 31.0902 4.00908L36.7273 4.06026Z" stroke="#FF498B" stroke-width="6" mask="url(#path-6-inside-4)"/>
<path d="M7.63656 19.6696C8.09406 18.9417 8.89345 18.5 9.75315 18.5H24.3429H38.8216C39.7187 18.5 40.5471 18.9807 40.9922 19.7597L43.2779 23.7597C44.2303 25.4263 43.0268 27.5 41.1073 27.5H7.23886C5.27239 27.5 4.07577 25.3345 5.12227 23.6696L7.63656 19.6696Z" stroke="#152C5B" stroke-width="3"/>
</svg>
