<svg width="48" height="36" viewBox="0 0 48 36" fill="none" xmlns="http://www.w3.org/2000/svg">
<mask id="path-1-inside-1" fill="white">
<path fill-rule="evenodd" clip-rule="evenodd" d="M19.6912 0C18.9572 0 18.2822 0.402047 17.9326 1.04743L15.7917 5H8C3.58172 5 0 8.58172 0 13V28C0 32.4183 3.58172 36 8 36H40C44.4183 36 48 32.4183 48 28V13C48 8.58172 44.4183 5 40 5H33.2083L31.0674 1.04743C30.7178 0.402047 30.0428 0 29.3088 0H19.6912Z"/>
</mask>
<path d="M17.9326 1.04743L20.5705 2.47628V2.47628L17.9326 1.04743ZM15.7917 5V8H17.5785L18.4295 6.42885L15.7917 5ZM33.2083 5L30.5705 6.42885L31.4215 8H33.2083V5ZM31.0674 1.04743L33.7052 -0.381415V-0.381415L31.0674 1.04743ZM20.5705 2.47628C20.3957 2.79898 20.0582 3 19.6912 3V-3C17.8563 -3 16.1687 -1.99488 15.2948 -0.381415L20.5705 2.47628ZM18.4295 6.42885L20.5705 2.47628L15.2948 -0.381415L13.1538 3.57115L18.4295 6.42885ZM8 8H15.7917V2H8V8ZM3 13C3 10.2386 5.23858 8 8 8V2C1.92487 2 -3 6.92487 -3 13H3ZM3 28V13H-3V28H3ZM8 33C5.23858 33 3 30.7614 3 28H-3C-3 34.0751 1.92487 39 8 39V33ZM40 33H8V39H40V33ZM45 28C45 30.7614 42.7614 33 40 33V39C46.0751 39 51 34.0751 51 28H45ZM45 13V28H51V13H45ZM40 8C42.7614 8 45 10.2386 45 13H51C51 6.92487 46.0751 2 40 2V8ZM33.2083 8H40V2H33.2083V8ZM28.4295 2.47628L30.5705 6.42885L35.8462 3.57115L33.7052 -0.381415L28.4295 2.47628ZM29.3088 3C28.9418 3 28.6043 2.79898 28.4295 2.47628L33.7052 -0.381415C32.8313 -1.99488 31.1437 -3 29.3088 -3V3ZM19.6912 3H29.3088V-3H19.6912V3Z" fill="#152C5B" mask="url(#path-1-inside-1)"/>
<circle cx="24" cy="18" r="6.5" stroke="#FF498B" stroke-width="3"/>
<path d="M41.0005 11.0619L33.9994 11.0624" stroke="#152C5B" stroke-width="3" stroke-linecap="round"/>
</svg>
