<svg width="30" height="48" viewBox="0 0 30 48" fill="none" xmlns="http://www.w3.org/2000/svg">
<path d="M28.5 40.1739C28.5 40.7849 28.2317 41.4747 27.5662 42.2242C26.8968 42.978 25.8864 43.717 24.5953 44.3687C22.0112 45.673 18.556 46.5 15.2459 46.5C11.9329 46.5 8.34564 45.6717 5.62771 44.3574C4.26916 43.7004 3.19642 42.955 2.4835 42.1944C1.7719 41.4352 1.5 40.7546 1.5 40.1739C1.5 39.6063 1.75996 38.9781 2.44827 38.2917C3.14568 37.5962 4.20498 36.927 5.5648 36.3452C8.28135 35.1828 11.8878 34.5 15.2459 34.5C18.6025 34.5 22.0768 35.1822 24.6595 36.3357C27.381 37.5513 28.5 38.9794 28.5 40.1739Z" stroke="#152C5B" stroke-width="3"/>
<path d="M28.5 12C28.5 15.0512 26.9465 22.4793 24.3537 29.195C23.0641 32.5353 21.5593 35.5861 19.9388 37.7734C18.262 40.0368 16.7457 41 15.5 41C14.2543 41 12.738 40.0368 11.0612 37.7734C9.44073 35.5861 7.93586 32.5353 6.64628 29.195C4.0535 22.4793 2.5 15.0512 2.5 12C2.5 6.45416 8.04214 1.5 15.5 1.5C22.9579 1.5 28.5 6.45416 28.5 12Z" fill="white" stroke="#152C5B" stroke-width="3"/>
<path d="M19.5 14C19.5 16.4853 17.4853 18.5 15 18.5C12.5147 18.5 10.5 16.4853 10.5 14C10.5 11.5147 12.5147 9.5 15 9.5C17.4853 9.5 19.5 11.5147 19.5 14Z" stroke="#FF498B" stroke-width="3"/>
</svg>
