<svg width="38" height="40" viewBox="0 0 38 40" fill="none" xmlns="http://www.w3.org/2000/svg">
<path d="M7 27.059C9.52145 23.4329 14.1756 21 19.5 21C24.8244 21 29.4785 23.4329 32 27.059" stroke="#152C5B" stroke-width="3" stroke-linecap="round"/>
<path d="M4 19C7.02574 14.8108 12.6107 12 19 12C25.3893 12 30.9743 14.8108 34 19" stroke="#152C5B" stroke-width="3" stroke-linecap="round"/>
<path d="M2 10C5.42917 5.21232 11.7588 2 19 2C26.2412 2 32.5708 5.21232 36 10" stroke="#152C5B" stroke-width="3" stroke-linecap="round"/>
<path d="M23.5 33.1463C23.5 35.7467 21.4514 37.7927 19 37.7927C16.5486 37.7927 14.5 35.7467 14.5 33.1463C14.5 30.546 16.5486 28.5 19 28.5C21.4514 28.5 23.5 30.546 23.5 33.1463Z" stroke="#FF498B" stroke-width="3"/>
</svg>
