<svg width="48" height="48" viewBox="0 0 48 48" fill="none" xmlns="http://www.w3.org/2000/svg">
<path d="M40.0022 24L40.0022 7.59088C40.0022 6.87028 39.6145 6.20539 38.9874 5.8504L36.1342 4.23527C35.5228 3.88917 34.7747 3.88925 34.1634 4.23548L30.2938 6.42709" stroke="#FF498B" stroke-width="3" stroke-linecap="round"/>
<path d="M1.5 27C1.5 25.6193 2.61929 24.5 4 24.5H44C45.3807 24.5 46.5 25.6193 46.5 27V29C46.5 30.3807 45.3807 31.5 44 31.5H4C2.61929 31.5 1.5 30.3807 1.5 29V27Z" stroke="#152C5B" stroke-width="3"/>
<path d="M6.5 31.5H41.5V39C41.5 40.933 39.933 42.5 38 42.5H10C8.067 42.5 6.5 40.933 6.5 39V31.5Z" stroke="#152C5B" stroke-width="3"/>
<path d="M13.0263 46L13 43" stroke="#152C5B" stroke-width="3" stroke-linecap="round"/>
<path d="M35.0263 46L35 43" stroke="#152C5B" stroke-width="3" stroke-linecap="round"/>
</svg>
