<svg width="48" height="48" viewBox="0 0 48 48" fill="none" xmlns="http://www.w3.org/2000/svg">
<path d="M1.5 8C1.5 6.61929 2.61929 5.5 4 5.5H44C45.3807 5.5 46.5 6.61929 46.5 8V23C46.5 24.3807 45.3807 25.5 44 25.5H4C2.61929 25.5 1.5 24.3807 1.5 23V8Z" stroke="#152C5B" stroke-width="3"/>
<path d="M40.5643 44.0275L39.7523 42.9579C36.9701 39.2936 37.0473 34.2037 39.9392 30.6253L40.5272 29.8977" stroke="#152C5B" stroke-width="3" stroke-linecap="round"/>
<path d="M7 44.1298L7.81205 43.0602C10.5942 39.3958 10.5171 34.306 7.62514 30.7276L7.0371 30" stroke="#152C5B" stroke-width="3" stroke-linecap="round"/>
<path d="M35.5672 44.1298L34.7552 43.0602C31.973 39.3958 32.0502 34.306 34.9421 30.7276L35.5301 30" stroke="#152C5B" stroke-width="3" stroke-linecap="round"/>
<path d="M11.9971 44.2321L12.8092 43.1625C15.5913 39.4981 15.5142 34.4083 12.6223 30.8299L12.0342 30.1023" stroke="#152C5B" stroke-width="3" stroke-linecap="round"/>
<path d="M21 13.0377L28.001 13" stroke="#FF498B" stroke-width="3" stroke-linecap="round"/>
<path d="M46 20L2.99999 20.0005" stroke="#152C5B" stroke-width="3" stroke-linecap="round"/>
</svg>
